<?xml version="1.0" encoding="UTF-8" standalone="no"?>
<!-- Created with Inkscape (http://www.inkscape.org/) -->

<svg
   width="512"
   height="512"
   viewBox="0 0 512 512"
   version="1.1"
   id="svg1"
   xml:space="preserve"
   inkscape:version="1.4 (e7c3feb1, 2024-10-09)"
   sodipodi:docname="basic-icon.svg"
   xmlns:inkscape="http://www.inkscape.org/namespaces/inkscape"
   xmlns:sodipodi="http://sodipodi.sourceforge.net/DTD/sodipodi-0.dtd"
   xmlns="http://www.w3.org/2000/svg"
   xmlns:svg="http://www.w3.org/2000/svg"><sodipodi:namedview
     id="namedview1"
     pagecolor="#505050"
     bordercolor="#eeeeee"
     borderopacity="1"
     inkscape:showpageshadow="0"
     inkscape:pageopacity="0"
     inkscape:pagecheckerboard="0"
     inkscape:deskcolor="#505050"
     inkscape:document-units="px"
     showguides="true"
     inkscape:zoom="0.97951644"
     inkscape:cx="250.12342"
     inkscape:cy="287.89716"
     inkscape:window-width="1680"
     inkscape:window-height="965"
     inkscape:window-x="0"
     inkscape:window-y="25"
     inkscape:window-maximized="1"
     inkscape:current-layer="layer1" /><defs
     id="defs1" /><g
     inkscape:label="Layer 1"
     inkscape:groupmode="layer"
     id="layer1"><path
       fill="currentColor"
       fill-rule="evenodd"
       d="m 86.235801,474.17954 c -4.33816,0 -7.93565,-7.4246 -7.93565,-16.3778 V 64.734411 c 0,-8.953208 3.59749,-16.377804 7.93565,-16.377804 4.33815,0 7.93565,7.424596 7.93565,16.377804 V 457.80174 c 0,8.9532 -3.5975,16.3778 -7.93565,16.3778 M 54.493203,386.83125 c -4.338155,0 -7.935649,-7.42461 -7.935649,-16.3778 V 152.08269 c 0,-8.95319 3.597494,-16.3778 7.935649,-16.3778 4.338155,0 7.935649,7.42461 7.935649,16.3778 v 218.37076 c 0,8.95319 -3.597494,16.3778 -7.935649,16.3778 m 55.549547,5.45925 c 0,8.95322 3.59749,16.37781 7.93565,16.37781 4.33815,0 7.93565,-7.42459 7.93565,-16.37781 V 130.24564 c 0,-8.95321 -3.5975,-16.3778 -7.93565,-16.3778 -4.33816,0 -7.93565,7.42459 -7.93565,16.3778 z m 39.67824,-49.1334 c -4.33815,0 -7.93565,-7.42461 -7.93565,-16.3778 V 195.75684 c 0,-8.95319 3.5975,-16.3778 7.93565,-16.3778 4.33816,0 7.93565,7.42461 7.93565,16.3778 V 326.7793 c 0,8.95319 -3.59749,16.3778 -7.93565,16.3778 m 23.80695,27.29635 c 0,8.95319 3.59749,16.3778 7.93565,16.3778 4.33815,0 7.93565,-7.42461 7.93565,-16.3778 V 152.08269 c 0,-8.95319 -3.5975,-16.3778 -7.93565,-16.3778 -4.33816,0 -7.93565,7.42461 -7.93565,16.3778 z m 39.67825,-70.97051 c -4.33816,0 -7.93565,-7.42459 -7.93565,-16.37778 v -43.67418 c 0,-8.95319 3.59749,-16.37778 7.93565,-16.37778 4.33815,0 7.93565,7.42459 7.93565,16.37778 v 43.67418 c 0,8.95319 -3.5975,16.37778 -7.93565,16.37778 M 14.814956,283.10516 c 0,8.95319 3.597495,16.37778 7.93565,16.37778 4.338155,0 7.935649,-7.42459 7.935649,-16.37778 v -43.67418 c 0,-8.95319 -3.597494,-16.37778 -7.935649,-16.37778 -4.338155,0 -7.93565,7.42459 -7.93565,16.37778 z"
       color="currentColor"
       id="path1"
       style="stroke-width:15.2005" /><path
       fill="none"
       stroke="currentColor"
       stroke-linecap="round"
       stroke-linejoin="round"
       stroke-width="13.6264"
       d="m 242.08199,297.78375 c -8.44837,0 -12.67255,0 -16.13365,-0.92659 a 27.252799,27.252799 0 0 1 -19.27682,-19.26772 c -0.92659,-3.4702 -0.92659,-7.69438 -0.92659,-16.14275 0,-8.44837 0,-12.67255 0.92659,-16.14275 a 27.252799,27.252799 0 0 1 19.27682,-19.25864 c 3.4611,-0.93567 7.68528,-0.93567 16.13365,-0.93567 m 54.5056,72.67412 h 54.5056 c 8.44837,0 12.67255,0 16.13365,-0.92659 a 27.252799,27.252799 0 0 0 19.27682,-19.26772 c 0.92659,-3.4702 0.92659,-7.69438 0.92659,-16.14275 0,-8.44837 0,-12.67255 -0.92659,-16.14275 A 27.252799,27.252799 0 0 0 367.22684,226.0453 c -3.45201,-0.93567 -7.68528,-0.93567 -16.13365,-0.93567 h -54.5056 m -45.42133,-45.42134 h 18.16853 m 18.16853,0 h -18.16853 m 0,0 v 163.5168 m 0,0 h -18.16853 m 18.16853,0 h 18.16853"
       color="currentColor"
       id="path1-1" /><path
       fill="none"
       stroke="currentColor"
       stroke-linecap="round"
       stroke-linejoin="round"
       stroke-width="21.3072"
       d="m 454.15677,99.208442 h 46.64912 M 454.15677,207.34441 h 27.98946 m -27.98946,108.136 h 46.64912 m -46.64912,108.13597 h 27.98946 M 416.83748,66.767658 V 456.05716 M 351.52871,185.71722 365.9153,212.5782 c 12.17542,22.75182 18.2678,34.12773 18.2678,48.83421 0,14.70648 -6.09238,26.08239 -18.2678,48.83421 l -14.38659,26.86098"
       color="currentColor"
       id="path1-0" /><path
       style="fill:#d4ff2a;stroke-width:1.02091"
       d="m 345.9534,345.30075 c -2.74507,-2.22359 -4.46169,-5.53876 -4.44689,-8.58793 0.006,-1.3003 3.59181,-9.02562 7.96777,-17.16739 l 7.95629,-14.80322 -32.04261,-0.51046 c -30.21992,-0.48142 -32.12496,-0.62319 -33.49056,-2.49218 -2.06369,-2.82442 -1.79095,-6.06898 0.69974,-8.32439 2.0099,-1.82004 4.39277,-1.96362 37.13846,-2.2378 l 34.99077,-0.29296 3.64333,-7.97033 c 7.29302,-15.95456 7.28854,-27.17653 -0.0173,-43.15902 l -3.66059,-8.00807 h -34.01044 c -23.81751,0 -34.79709,-0.35842 -36.63523,-1.19593 -4.70295,-2.14281 -4.67622,-8.74936 0.0441,-10.90008 1.76296,-0.80325 12.23376,-1.17584 33.04472,-1.17584 h 30.46403 l -8.03115,-15.05845 c -4.41713,-8.28215 -8.04053,-16.07051 -8.052,-17.30747 -0.0765,-8.2528 9.34386,-13.36914 15.58158,-8.46255 2.53689,1.99552 13.4319,21.51055 28.22255,50.55195 6.86694,13.48319 7.35432,14.89217 8.36326,24.17694 1.61109,14.82629 0.0332,25.52522 -5.38924,36.5425 -10.88524,22.11645 -27.83922,52.84861 -30.55389,55.38447 -3.51226,3.28092 -8.45223,3.69928 -11.78675,0.99821 z"
       id="path2" /><path
       style="fill:#d4ff2a;stroke-width:1.02091"
       d="m 413.3551,465.55618 c -1.18582,-0.47913 -3.13832,-2.11989 -4.33887,-3.64616 L 406.8334,459.135 V 261.44293 c 0,-219.708611 -0.62807,-200.79211 6.76935,-203.88295 2.96631,-1.239402 3.92226,-1.235628 6.94515,0.02742 7.25733,3.032306 6.70373,-13.794754 6.70373,203.76605 0,217.46872 0.54784,200.73615 -6.67094,203.75235 -3.92104,1.63832 -4.23677,1.65799 -7.22559,0.45038 z"
       id="path3" /><path
       style="fill:#d4ff2a;stroke-width:1.02091"
       d="m 447.86936,106.69649 c -3.62668,-3.05165 -4.57913,-7.025194 -2.73936,-11.428387 2.58602,-6.189218 4.71156,-6.581696 33.8068,-6.242392 l 26.07482,0.304081 2.97739,3.33407 c 3.19678,3.579724 3.6999,6.724638 1.75773,10.987228 -2.37214,5.20628 -4.60794,5.58648 -32.85185,5.58648 h -26.00562 z"
       id="path4" /><path
       style="fill:#d4ff2a;stroke-width:1.02091"
       d="m 448.8101,215.78944 c -1.30725,-0.91563 -3.02358,-3.21268 -3.81405,-5.10456 -1.2394,-2.9663 -1.23563,-3.92225 0.0274,-6.94515 2.42302,-5.7991 5.51966,-6.70373 22.94748,-6.70373 8.41386,0 16.47614,0.44796 17.91619,0.99546 1.44005,0.54751 3.55513,2.5 4.70019,4.33888 2.69259,4.32412 1.96722,8.57562 -2.09455,12.27639 l -3.08138,2.80751 h -17.11224 c -14.1681,0 -17.52116,-0.28643 -19.48906,-1.6648 z"
       id="path5" /><path
       style="fill:#d4ff2a;stroke-width:1.02091"
       d="m 449.7117,324.37165 c -1.40376,-0.69803 -3.39409,-2.98831 -4.42296,-5.08951 -1.81363,-3.70385 -1.81363,-3.93687 0,-7.64072 3.01216,-6.15154 4.07112,-6.35697 32.85535,-6.37371 l 25.88012,-0.0151 3.4711,3.4711 c 4.70989,4.70989 4.70989,8.76615 0,13.47604 l -3.4711,3.4711 -25.88012,-0.0151 c -18.55199,-0.0108 -26.60281,-0.37442 -28.43239,-1.2842 z"
       id="path6" /><path
       style="fill:#d4ff2a;stroke-width:1.02091"
       d="m 449.7117,432.62389 c -1.40376,-0.7176 -3.37719,-2.98852 -4.38541,-5.0465 -1.64829,-3.36448 -1.6849,-4.09655 -0.36307,-7.26013 2.67146,-6.3937 4.21936,-6.84794 23.33594,-6.84794 h 17.11224 l 3.31087,2.95826 c 4.46656,3.99088 4.68029,9.96378 0.50604,14.14202 l -2.80484,2.80751 -17.07974,0.27575 c -12.32517,0.19899 -17.79024,-0.0874 -19.63203,-1.02897 z"
       id="path7" /><path
       style="fill:#d4ff2a;stroke-width:1.02091"
       d="m 247.3589,347.87573 c -2.78386,-2.18835 -3.06883,-5.31732 -0.75246,-8.2621 1.94283,-2.46992 2.76677,-2.7127 9.20609,-2.7127 h 7.07229 v -75.54748 -75.54748 l -6.89116,-0.0156 c -7.52953,-0.0171 -8.54574,-0.39152 -10.34743,-3.81278 -1.25938,-2.39146 -0.16601,-5.97259 2.33297,-7.64121 0.61782,-0.41253 10.35516,-0.75708 21.63854,-0.76568 18.59003,-0.0142 20.6738,0.15957 22.20484,1.85135 2.2314,2.46567 2.14724,6.5906 -0.17739,8.69436 -1.34452,1.21678 -3.77293,1.6896 -8.67775,1.6896 h -6.81077 v 75.54748 75.54748 h 6.40877 c 7.64315,0 10.94673,1.81831 10.94673,6.02514 0,5.79712 -1.6616,6.2258 -24.13191,6.2258 -14.77194,0 -20.84571,-0.35198 -22.02136,-1.27614 z"
       id="path8" /><path
       style="fill:#d4ff2a;stroke-width:1.02091"
       d="m 225.84358,303.11735 c -2.12388,-0.50012 -5.20208,-1.6025 -6.84045,-2.44973 -1.63838,-0.84724 -3.87966,-1.54043 -4.98063,-1.54043 -2.63946,0 -5.97307,-4.10366 -10.35057,-12.74149 -3.53696,-6.97923 -3.57675,-7.20505 -3.92409,-22.26835 -0.41024,-17.79128 0.36646,-21.77575 6.26742,-32.1519 3.11048,-5.46942 4.91409,-7.58617 6.8137,-7.99665 1.4209,-0.30704 4.74405,-1.44249 7.38477,-2.52322 2.75695,-1.1283 8.69172,-2.24112 13.93813,-2.61352 8.87713,-0.63011 9.21217,-0.57318 11.7885,2.00315 3.30593,3.30593 3.33901,5.21273 0.14582,8.40592 -2.2316,2.2316 -3.37697,2.50605 -10.46435,2.50746 -5.59767,0.001 -8.96676,0.53109 -11.3575,1.7866 l -3.39903,1.78501 0.0368,26.03325 c 0.0436,30.89845 -0.97473,28.77588 14.22546,29.64958 8.47818,0.48732 9.86057,0.83695 11.54782,2.92061 2.4439,3.01809 2.41036,4.30059 -0.19923,7.61815 -1.9518,2.48131 -2.68429,2.682 -9.44344,2.58741 -4.03013,-0.0564 -9.06523,-0.51174 -11.18911,-1.01185 z"
       id="path9" /><path
       style="fill:#d4ff2a;stroke-width:1.02091"
       d="m 177.66785,383.54023 c -0.89717,-1.36926 -2.07473,-4.03598 -2.6168,-5.92605 -0.60767,-2.11881 -0.97697,-47.08624 -0.96315,-117.2749 0.0216,-109.48818 0.0963,-114.00108 1.95503,-118.09493 1.97638,-4.35289 4.66065,-6.55191 6.98283,-5.72048 0.71688,0.25667 2.32482,2.37679 3.57319,4.71138 l 2.26975,4.2447 0.28556,111.65048 c 0.18848,73.69681 -0.0732,113.60657 -0.76971,117.40487 -1.79224,9.77324 -7.22319,14.3367 -10.7167,9.00493 z"
       id="path10" /><path
       style="fill:#d4ff2a;stroke-width:1.02091"
       d="m 146.77587,340.72935 c -4.36958,-4.72841 -4.48348,-6.97245 -4.15826,-81.92818 0.29813,-68.71399 0.38655,-71.59027 2.29786,-74.74978 3.43994,-5.68642 6.61271,-5.42119 9.79617,0.81891 1.92792,3.77903 1.99834,6.45402 1.99834,75.91136 0,63.98812 -0.18395,72.45403 -1.65414,76.1284 -1.37241,3.43 -3.9012,6.11634 -5.75763,6.11634 -0.21978,0 -1.35484,-1.03367 -2.52234,-2.29705 z"
       id="path11" /><path
       style="fill:#d4ff2a;stroke-width:1.02091"
       d="m 115.59144,407.08862 c -4.97516,-3.74964 -4.82409,0.84407 -4.80008,-145.95761 0.0216,-132.11926 0.0922,-137.24397 1.94774,-141.33043 1.88815,-4.15835 5.06311,-6.27982 7.31522,-4.88794 0.62499,0.38627 1.99724,2.59812 3.04945,4.91523 1.83939,4.05062 1.91396,9.49224 1.93552,141.24969 0.0203,123.98238 -0.13516,137.43059 -1.63172,141.17086 -0.90977,2.27374 -2.4875,4.5801 -3.50607,5.12521 -2.32462,1.24411 -2.277,1.24725 -4.31006,-0.28501 z"
       id="path12" /><path
       style="fill:#d4ff2a;stroke-width:1.02091"
       d="m 83.351157,472.34868 c -4.396754,-5.29775 -4.230484,2.98768 -4.230484,-210.8101 0,-148.67921 0.307734,-202.937304 1.165477,-205.491309 2.796937,-8.32812 7.220601,-9.135981 10.830238,-1.977847 l 2.297052,4.555197 V 261.03865 c 0,184.2188 -0.148692,202.78565 -1.654136,206.54813 -2.196735,5.49018 -6.010956,7.65035 -8.408147,4.7619 z"
       id="path13" /><path
       style="fill:#d4ff2a;stroke-width:1.02091"
       d="m 51.274883,384.11624 c -0.890196,-0.98366 -2.109925,-3.08091 -2.710508,-4.66057 -0.751949,-1.97777 -1.091971,-38.76718 -1.091971,-118.14802 0,-103.88837 0.163404,-115.68431 1.654135,-119.41002 0.909774,-2.27375 2.468612,-4.56998 3.464083,-5.10274 2.588512,-1.38533 6.800635,2.22043 8.112778,6.9449 1.553016,5.59175 1.453821,230.48374 -0.103706,235.12142 -2.258927,6.72614 -6.056616,8.86634 -9.324811,5.25503 z"
       id="path14" /><path
       style="fill:#d4ff2a;stroke-width:1.02091"
       d="m 18.987799,296.47134 c -3.254043,-4.13684 -3.67412,-8.26875 -3.67412,-36.1388 0,-27.19514 0.567828,-31.57773 4.559373,-35.19003 2.595527,-2.34892 5.728359,-1.22758 7.957994,2.84842 1.538516,2.81257 1.817393,6.94751 2.090132,30.99062 0.328877,28.9918 -0.175985,33.88432 -3.910132,37.89246 -2.741639,2.9428 -4.469627,2.84373 -7.023247,-0.40267 z"
       id="path15" /></g></svg>
